inDegrees=no
num_controls=7
num_derivatives=13
num_iterations=61
num_multipliers=7
num_parameters=0
num_slacks=7
num_states=26
objective=0.479381
objective_accelerations=0.010594
objective_balance=0.000299
objective_effort=0.007708
objective_height=0.451416
objective_ligament=0.009364
solver_duration=874.194724
status=Solve_Succeeded
success=true
DataType=double
version=3
OpenSimVersion=4.5
endheader
time	/jointset/ground_pelvis/pelvis_tilt/value	/jointset/ground_pelvis/pelvis_tx/value	/jointset/ground_pelvis/pelvis_ty/value	/jointset/hip_l/hip_flexion_l/value	/jointset/hip_l/hip_adduction_l/value	/jointset/hip_l/hip_rotation_l/value	/jointset/back/lumbar_extension/value	/jointset/patellofemoral_l/patellar_flexion_l/value	/jointset/knee_l/knee_flexion_l/value	/jointset/knee_l/knee_adduction_l/value	/jointset/knee_l/knee_rotation_l/value	/jointset/ankle_l/ankle_angle_l/value	/jointset/subtalar_l/subtalar_angle_l/value	/jointset/ground_pelvis/pelvis_tilt/speed	/jointset/ground_pelvis/pelvis_tx/speed	/jointset/ground_pelvis/pelvis_ty/speed	/jointset/hip_l/hip_flexion_l/speed	/jointset/hip_l/hip_adduction_l/speed	/jointset/hip_l/hip_rotation_l/speed	/jointset/back/lumbar_extension/speed	/jointset/patellofemoral_l/patellar_flexion_l/speed	/jointset/knee_l/knee_flexion_l/speed	/jointset/knee_l/knee_adduction_l/speed	/jointset/knee_l/knee_rotation_l/speed	/jointset/ankle_l/ankle_angle_l/speed	/jointset/subtalar_l/subtalar_angle_l/speed	/forceset/tau_hip_flexion_l	/forceset/tau_hip_adduction_l	/forceset/tau_hip_rotation_l	/forceset/tau_knee_flexion_l	/forceset/tau_ankle_angle_l	/forceset/tau_subtalar_angle_l	/forceset/tau_lumbar_extension	lambda_cid13_p0	lambda_cid13_p1	lambda_cid13_p2	lambda_cid13_p3	lambda_cid13_p4	lambda_cid13_p5	lambda_cid14_p0	/jointset/ground_pelvis/pelvis_tilt/accel	/jointset/ground_pelvis/pelvis_tx/accel	/jointset/ground_pelvis/pelvis_ty/accel	/jointset/hip_l/hip_flexion_l/accel	/jointset/hip_l/hip_adduction_l/accel	/jointset/hip_l/hip_rotation_l/accel	/jointset/back/lumbar_extension/accel	/jointset/patellofemoral_l/patellar_flexion_l/accel	/jointset/knee_l/knee_flexion_l/accel	/jointset/knee_l/knee_adduction_l/accel	/jointset/knee_l/knee_rotation_l/accel	/jointset/ankle_l/ankle_angle_l/accel	/jointset/subtalar_l/subtalar_angle_l/accel	gamma_cid13_p0	gamma_cid13_p1	gamma_cid13_p2	gamma_cid13_p3	gamma_cid13_p4	gamma_cid13_p5	gamma_cid14_p0
0.5	0.143645618959052	0.1499650208415898	0.8824057725998895	0.141073650982922	-0.3678466807139996	-0.1586113209802728	-0.3572961741608724	0.5016614303402378	0.5016614303402273	-0.09402383105170325	-0.1741560942247038	0.3087489743840081	0.1578741376152603	0.2272962836160994	0.09749737215877334	-0.08307015629630451	0.0424932158539232	-0.04009148277760267	0.1943648623642103	-0.345044249498989	0.7381975065724654	0.7381975065726468	0.0969568744907251	0.0006376175382761559	0.5299103392154221	0.1674318058408383	0.04023317068402239	0.03484383721182573	0.006771491728978874	-0.1862130539468676	-0.03468400916890096	-0.02397415820797825	0.02769047676017964	-39.89139239458521	17.90437928171072	-3.715383324063994	7.855291827407894	-461.2261837812894	-48.29573347973058	-22.27586563854025	-0.3223468679656551	-0.1397988948596388	-0.03535058482080784	-0.02563486456006584	0.006975925395408246	-0.3616414926205733	0.5216034771210489	-0.8967051709996046	-0.8967051709995905	-0.1899877612185637	0.006949841316741773	-0.6494889205876144	-0.09168152266199822	8.910725057345841e-09	-5.074695414568962e-07	2.155680848614389e-07	-5.508906798884976e-08	1.924056697206125e-08	-4.692858242604246e-07	-4.922784558684194e-08
0.51	0.1459017659901499	0.1509328905980595	0.881573458895785	0.1414976880719948	-0.3682473850352217	-0.1566865442575726	-0.3607197692572156	0.5089976678541881	0.5089976678540922	-0.09306397575616451	-0.174150200431592	0.3140148387812743	0.1595433150798706	0.2238819148568231	0.09606493624389727	-0.08337200668887158	0.04232756044788593	-0.0400394107116959	0.1905783356857832	-0.3396199441734217	0.7289405037991261	0.7289405037992928	0.0950114202429804	0.0005511821283842305	0.523186045307561	0.1663781584268616	0.04013409799309398	0.03628944781985977	0.006785348046231121	-0.1869532971104946	-0.03745292410552142	-0.02326968273216068	0.02814784019663643	-40.79251573892457	17.81730973118603	-3.771297500685287	8.211026820824088	-461.8715357065817	-48.17922209525302	-22.07285940110253	-0.3586628009003487	-0.1467232457265204	-0.02451168839197657	-0.01002567512899618	0.005831273278168264	-0.3890206840819848	0.5610678992649974	-0.9566120289853657	-0.9566120289879938	-0.1972946998027865	-0.01491143492003615	-0.6953893015769779	-0.1159830115488669	9.156541594749769e-09	-4.890558330830807e-07	2.072877631386649e-07	-5.339015797501825e-08	2.069256061790167e-08	-4.528087645772214e-07	-4.709557618832197e-08
0.52	0.1481222331495079	0.1518860845341957	0.8807387448033787	0.1419204696476767	-0.3686472669505651	-0.1548000052873812	-0.3640874765325117	0.5162380525007233	0.5162380525004933	-0.09212366909188782	-0.1741448652330135	0.3192111623043173	0.1612012007381838	0.2201603092576691	0.09456220809205942	-0.0835502339569139	0.04224211318163595	-0.03992700160225793	0.1867173118622762	-0.3338666852882803	0.7190269330864728	0.7190269330866248	0.09304714826520842	0.0005258986073699682	0.5160021643720776	0.1651734445815468	0.04003502530144609	0.03773505842798889	0.006799204362845339	-0.1876935402742268	-0.04022183904211232	-0.02256520725618778	0.02860520363245612	-41.69745165400752	17.72784184263682	-3.823327323244706	8.572571767611034	-462.5851587737526	-48.08799311420997	-21.86739005917061	-0.3837942359411793	-0.1538573422518532	-0.01062595991593952	-0.009593236602725633	0.01904333410138621	-0.3765409216362764	0.5873941890355656	-1.028018758861919	-1.028018758861898	-0.193751307224518	0.01918021909215355	-0.7414063261116285	-0.12189480892981	9.640878652377312e-09	-4.681658932255923e-07	1.95630837934302e-07	-5.14243674343814e-08	2.307177345780274e-08	-4.30697066232095e-07	-4.463106054488174e-08
0.53	0.150304150370837	0.1528238461787097	0.8799028987032911	0.142342665386965	-0.3690456290069661	-0.1529528374273516	-0.3673965359474959	0.5233760436786682	0.5233760436786258	-0.09120275518095546	-0.1741397482109636	0.3243333200933819	0.1628463829903957	0.2161943679236002	0.09297313438408424	-0.08359466067153669	0.04219167810462607	-0.03972760222990548	0.1826610383004083	-0.3279457962871007	0.7084600675319188	0.708460067532091	0.09116429389048543	0.0004770537877476187	0.5083476277301158	0.1638448817131809	0.04007075580065649	0.0391510102320405	0.006788677801417371	-0.1885475658341894	-0.04279250060980644	-0.02193081383806541	0.02892885884038365	-42.54360348899389	17.66898015505828	-3.892187093287985	8.93188599059461	-463.2456341051984	-47.9501558357887	-21.6598698246354	-0.4073088741484215	-0.1639904272618835	0.002302645168038842	-0.003570682972842398	0.02307200330536312	-0.4284901494650311	0.5943464685916353	-1.087697031012509	-1.087697031009819	-0.1813053063506817	-0.01996568182272104	-0.7897563764272129	-0.1410068300686939	9.226061316486149e-09	-4.51902713713908e-07	1.947710746024158e-07	-4.976858309606557e-08	2.369870156630869e-08	-4.237686332022967e-07	-4.329829808826045e-08
0.54	0.1524455452204679	0.153745205477706	0.8790673390705456	0.1427641963674989	-0.3694414603167371	-0.1511478962181393	-0.3706464044298917	0.5304050308856437	0.5304050308857126	-0.09029982037463805	-0.1741357294068675	0.3293764767073854	0.1644777456530677	0.2120558349089892	0.09128173898850665	-0.08349294048873307	0.04210916143864876	-0.0394208522774802	0.1782719816984662	-0.3220284987686619	0.6972261388870032	0.6972261388871961	0.08945132736557158	0.0003062549947868515	0.5002019293606398	0.1624095266736636	0.04010648629906281	0.04056696203615306	0.00677815123933795	-0.1894015913943009	-0.0453631621774955	-0.02129642041984207	0.02925251404761792	-43.39405245018591	17.6078197070035	-3.957195032969331	9.298708279961801	-463.9813607417296	-47.8379034419155	-21.45048233169598	-0.4183125720494917	-0.1743216797722683	0.01860341956927266	-0.01600955439630686	0.04051345011571454	-0.4430975296507969	0.5866758924871233	-1.16143137693373	-1.161431376933662	-0.159773737263163	-0.005210575575602287	-0.8396386716141722	-0.1432532431602926	7.816434864361509e-09	-4.407585030954538e-07	2.058571073847596e-07	-4.845578434329639e-08	2.238693167412214e-08	-4.336387064788191e-07	-4.321768809365165e-08
0.55	0.1545444230500426	0.1546493325482515	0.8782334733421433	0.1431848661650262	-0.3698339271716585	-0.1493873332904773	-0.373836097383092	0.5373184722346985	0.5373184722346964	-0.08941404624884475	-0.1741332546502597	0.3343359820239471	0.1660939599645919	0.2076658712169838	0.08954604975031211	-0.0832609036551281	0.04202877984289606	-0.03907607945923115	0.1738930151590933	-0.3158106057235194	0.6853625627560002	0.685362562756195	0.08764919522095183	0.0002383923319871667	0.4916434564010334	0.1607928394258005	0.03995019702120137	0.04186485940746185	0.006772088330169969	-0.1901797771430487	-0.04767171426045277	-0.02066552406117645	0.02978134651844991	-44.14758557499535	17.53152194302601	-4.020147331953354	9.475850245674428	-464.6130970982949	-47.73192694992389	-21.23945935359165	-0.4574173760492702	-0.1728458993397617	0.02840337979741639	-0.003454237582261855	0.03092934780518511	-0.42747199840463	0.654268932469656	-1.213747320201698	-1.213747320201768	-0.1986243415193975	-9.757513906919401e-05	-0.8723170173914593	-0.1769082629210025	7.00182275578825e-09	-4.198614355601583e-07	2.054535303320194e-07	-4.614576490585097e-08	2.133758695577034e-08	-4.253955614899608e-07	-4.159603347452956e-08
0.5600000000000001	0.1565977854210855	0.155536172055716	0.8774025078949931	0.1436048517914817	-0.3702230522683634	-0.1476689951846713	-0.3769606268214596	0.5441102925046404	0.5441102925045439	-0.08854793172219774	-0.1741299632129589	0.3392082295290634	0.1676928010441726	0.2029527431938638	0.08782422637232296	-0.08291288423854068	0.04197232723039628	-0.03875250063599308	0.1698270173267923	-0.3089957958007397	0.6729019230643219	0.6729019230645185	0.08551940753799757	0.0004695911289070159	0.4827503670711567	0.1589348802850667	0.03979390774264197	0.04316275677875878	0.006766025420829168	-0.1909579628919416	-0.04998026634342112	-0.02003462770252687	0.03031017898869048	-44.90549213007051	17.45253971899351	-4.07873098051953	9.66045286041731	-465.3245691554375	-47.65376098512184	-21.02737346892666	-0.4829454382722176	-0.1715485077311962	0.04179993616569923	-0.01122375774580101	0.03627465111330286	-0.3805037882360837	0.706059268014349	-1.280844089068259	-1.280844089068298	-0.2253048449305085	0.05460171636823959	-0.9065619456679691	-0.1915076217346631	6.901227859476627e-09	-3.872609397246536e-07	1.912624214771791e-07	-4.263908064679408e-08	2.060315244602023e-08	-3.954165545826464e-07	-3.81251253059916e-08
